<svg width="60" height="58" viewBox="0 0 60 58" fill="none" xmlns="http://www.w3.org/2000/svg">
<path fill-rule="evenodd" clip-rule="evenodd" d="M42 57.5037C52.5954 52.8744 60 42.3019 60 30C60 13.4315 46.5685 0 30 0C13.4315 0 0 13.4315 0 30C0 42.3019 7.40457 52.8744 18 57.5037V50C18 44.451 21.7663 39.7817 26.8821 38.409C24.0129 37.2696 22 34.6052 22 31.5C22 27.3579 25.5817 24 30 24C34.4183 24 38 27.3579 38 31.5C38 34.6052 35.9871 37.2696 33.1179 38.409C38.2337 39.7817 42 44.451 42 50V57.5037Z" fill="#CDCDCD"/>
</svg>
